<?xml version="1.0" standalone="no"?>
<!DOCTYPE svg PUBLIC "-//W3C//DTD SVG 20010904//EN"
 "http://www.w3.org/TR/2001/REC-SVG-20010904/DTD/svg10.dtd">
<svg version="1.0" xmlns="http://www.w3.org/2000/svg"
 width="700.000000pt" height="700.000000pt" viewBox="0 0 700.000000 700.000000"
 preserveAspectRatio="xMidYMid meet">
<metadata>
Created by potrace 1.11, written by Peter Selinger 2001-2013
</metadata>
<g transform="translate(0.000000,700.000000) scale(0.100000,-0.100000)"
fill="#000000" stroke="none">
<path d="M534 6985 c-240 -52 -426 -222 -506 -460 l-23 -70 -3 -670 c-1 -368
-1 -730 0 -804 l3 -135 40 65 c51 83 190 222 283 283 89 59 235 119 339 142
104 22 302 22 406 0 105 -23 251 -84 338 -141 529 -352 600 -1087 148 -1535
-137 -135 -297 -220 -489 -260 l-85 -17 -3 -536 -2 -536 32 -5 c18 -3 67 -10
108 -17 163 -25 387 -114 535 -213 l69 -47 469 469 469 469 -46 94 c-72 146
-99 264 -99 434 0 193 32 326 119 484 67 122 189 257 299 331 28 18 52 35 54
36 2 2 -51 169 -117 371 -66 202 -123 378 -127 391 -6 21 -12 22 -94 22 -515
0 -949 394 -989 897 -25 307 75 582 287 794 65 64 108 97 217 166 29 18 -1547
17 -1632 -2z"/>
<path d="M3155 6965 c234 -142 400 -376 455 -645 l17 -85 536 -3 537 -2 4 22
c2 13 11 66 20 119 31 188 109 382 220 547 l56 82 -952 0 -952 0 59 -35z"/>
<path d="M5218 6915 c-128 -148 -215 -313 -264 -502 -35 -131 -44 -355 -20
-489 86 -493 445 -874 929 -985 127 -29 322 -36 449 -15 241 39 463 146 633
304 l56 52 -3 588 c-3 583 -3 587 -27 657 -36 110 -87 193 -170 276 -83 83
-166 134 -276 170 -70 24 -74 24 -652 27 l-581 3 -74 -86z"/>
<path d="M3626 5998 c-3 -7 -10 -42 -16 -77 -44 -242 -199 -474 -411 -619
l-47 -32 82 -252 c46 -139 103 -315 127 -390 l44 -138 77 0 c216 0 455 -77
600 -191 l40 -32 460 460 460 460 -54 72 c-137 180 -235 409 -268 626 -7 44
-14 90 -16 103 l-4 22 -536 0 c-419 0 -535 -3 -538 -12z"/>
<path d="M758 5130 c-305 -48 -551 -270 -634 -571 -22 -79 -25 -300 -5 -369
81 -283 268 -480 531 -562 64 -20 96 -23 220 -23 124 0 156 3 220 23 313 98
528 371 547 697 25 426 -302 788 -730 809 -51 3 -118 1 -149 -4z"/>
<path d="M4736 4571 l-458 -458 41 -60 c129 -189 190 -445 161 -673 -70 -557
-592 -949 -1136 -855 -109 19 -218 56 -307 103 l-67 36 -472 -471 -471 -471
30 -43 c125 -184 213 -430 236 -659 l2 -25 537 -3 537 -2 7 37 c37 219 124
393 273 546 124 129 280 220 459 269 64 18 106 22 242 22 142 1 177 -2 250
-22 317 -87 570 -315 679 -614 48 -129 55 -177 55 -348 0 -138 -4 -178 -22
-243 -66 -238 -215 -446 -416 -578 l-91 -60 825 3 825 3 70 23 c111 37 193 88
276 171 83 83 134 165 171 276 l23 70 3 810 3 810 -50 -75 c-128 -193 -323
-336 -556 -407 -84 -25 -102 -27 -270 -27 -167 0 -187 2 -268 27 -340 104
-579 347 -683 692 -25 82 -28 105 -28 255 -1 207 24 309 115 478 69 129 186
261 304 342 107 74 281 142 418 165 l37 6 0 535 c0 419 -3 535 -12 538 -7 2
-62 11 -122 21 -209 32 -429 125 -599 250 -48 36 -88 65 -90 65 -1 0 -208
-206 -461 -459z"/>
<path d="M6932 4940 c-73 -53 -228 -131 -335 -169 -97 -34 -264 -71 -321 -71
l-36 0 0 -540 0 -540 28 -5 c301 -56 530 -201 681 -431 l51 -78 0 937 c0 515
-3 937 -7 937 -5 -1 -32 -18 -61 -40z"/>
<path d="M0 2956 c0 -747 3 -935 13 -929 6 4 44 29 82 54 92 61 190 110 296
147 94 33 261 72 311 72 18 0 39 4 46 8 10 7 12 122 10 542 l-3 533 -85 17
c-264 54 -493 213 -639 444 l-31 50 0 -938z"/>
<path d="M6033 3399 c-172 -20 -322 -96 -453 -228 -141 -142 -208 -297 -217
-501 -10 -222 56 -402 206 -562 228 -244 597 -311 899 -162 196 96 356 296
408 509 25 102 23 277 -4 378 -58 215 -207 394 -407 492 -137 67 -282 92 -432
74z"/>
<path d="M4185 1635 c-145 -31 -280 -110 -391 -228 -119 -126 -185 -268 -205
-445 -55 -482 369 -901 851 -842 172 20 314 86 436 203 166 157 244 338 244
566 0 242 -113 467 -309 613 -71 54 -199 112 -288 132 -86 19 -253 20 -338 1z"/>
<path d="M2290 741 c0 -43 -28 -181 -56 -278 -32 -110 -106 -266 -177 -372
-32 -46 -57 -86 -57 -88 0 -1 429 -3 953 -3 l952 0 -60 36 c-128 77 -242 188
-323 313 -71 110 -112 221 -147 394 l-5 27 -540 0 -540 0 0 -29z"/>
</g>
</svg>
